<svg width="39" height="39" viewBox="0 0 39 39" fill="none" xmlns="http://www.w3.org/2000/svg">
<path d="M32.5 19.5812C32.4696 17.1039 31.7318 14.6869 30.3737 12.6148C29.0155 10.5427 27.0936 8.90179 24.8342 7.8854C22.5747 6.86901 20.0718 6.51944 17.6204 6.87784C15.1689 7.23625 12.8709 8.28769 10.997 9.90838C9.1231 11.5291 7.75132 13.6515 7.04323 16.0256C6.33515 18.3998 6.32023 20.9269 7.00026 23.3093C7.68029 25.6917 9.02693 27.8301 10.8816 29.4728C12.7362 31.1155 15.0217 32.194 17.4687 32.5812V23.3675H14.2188V19.5812H17.4687V16.705C17.3935 16.0362 17.466 15.3591 17.6811 14.7214C17.8963 14.0836 18.2487 13.5009 18.7137 13.0143C19.1786 12.5277 19.7446 12.149 20.3718 11.9051C20.9991 11.6612 21.6723 11.5579 22.3437 11.6025C23.3184 11.6159 24.2908 11.7028 25.2525 11.8625V15.1125H23.6275C23.3473 15.0772 23.0626 15.1053 22.7948 15.1947C22.5269 15.2841 22.2825 15.4326 22.0797 15.6291C21.8769 15.8257 21.7209 16.0653 21.6232 16.3303C21.5254 16.5953 21.4885 16.8789 21.515 17.16V19.6137H25.1225L24.5375 23.4H21.5312V32.5C24.6023 32.0143 27.3976 30.4439 29.41 28.0736C31.4224 25.7034 32.5187 22.6905 32.5 19.5812Z" fill="#939392"/>
</svg>
