<svg width="128" height="70" viewBox="0 0 128 70" fill="none" xmlns="http://www.w3.org/2000/svg">
<path d="M117.367 33.6632C119.699 32.825 120.183 29.3248 117.086 28.6265C114.725 28.0943 112.317 27.9284 109.93 28.0822C115.078 23.9651 117.504 20.7341 113.723 20.0171C110.44 19.3931 107.755 18.2943 105.336 17.1488C105.986 10.1027 106.649 -0.170689 95.364 0.00215266C91.4238 0.0625471 91.4157 5.37025 95.364 5.30986C100.341 5.23378 100.111 10.386 99.595 14.384C95.5213 12.6406 91.5077 11.9893 85.5054 15.2616C73.6045 21.7512 51.5068 21.1602 33.8271 14.0834C16.1474 7.00657 15.8088 12.3139 15.8088 12.3139C15.8088 12.3139 -3.25425 35.7447 9.68928 26.7636C14.4097 23.4896 21.4087 23.9043 29.0559 26.202C20.2661 24.6831 10.224 26.8567 2.67988 33.0716C0.766725 34.6459 2.06435 36.8298 3.98597 37.4154C1.47497 40.5829 0 44.4151 0 48.5496C0 59.4193 10.1605 68.2325 22.6936 68.2325C35.147 68.2325 45.2487 59.5297 45.3753 48.7518C47.0515 48.9384 48.8346 48.1038 48.7019 46.2259C48.2614 39.9886 45.5015 35.1264 41.4216 31.6969C41.5132 31.5514 41.597 31.4013 41.6867 31.2545C49.7467 35.1544 57.5717 40.021 63.4131 43.9416C63.3135 44.0537 63.2181 44.1662 63.1423 44.296C62.4629 45.4758 61.7816 46.654 61.1022 47.8342C60.3555 49.1285 60.6921 50.6991 62.2001 51.4642C63.5666 52.1606 65.6414 51.8063 66.3854 50.5123C67.0078 49.4342 67.6303 48.3541 68.2524 47.2743C71.3758 49.4859 73.264 50.9424 73.264 50.9424C73.264 50.9424 75.1925 49.8953 78.2163 48.1919C77.9474 49.3391 77.7901 50.526 77.7682 51.7545C77.7224 54.3548 81.2367 54.9735 82.9575 53.6241C84.7745 62.9165 94.0752 70 105.306 70C117.839 70 128 61.1867 128 50.3174C128.003 43.2936 123.747 37.1464 117.367 33.6632ZM22.6936 62.9248C13.5548 62.9248 6.11957 56.475 6.11957 48.5496C6.11957 40.6226 13.5548 34.1744 22.6936 34.1744C25.7455 34.1744 28.5993 34.9072 31.0572 36.1598C27.9445 40.1041 24.4925 43.8569 20.7862 47.4472C18.1606 49.9871 22.4755 53.7536 25.113 51.2C28.9032 47.5303 32.4687 43.6947 35.6979 39.6636C37.925 42.1118 39.2676 45.1942 39.2676 48.548C39.2676 56.475 31.8324 62.9248 22.6936 62.9248ZM101.946 42.8652C100.281 41.2065 98.5136 39.6189 96.7347 38.038C98.2089 37.2602 99.8305 36.6763 101.562 36.3273C101.671 38.5081 101.787 40.6867 101.946 42.8652ZM105.309 64.6943C96.1688 64.6943 88.7347 58.2444 88.7347 50.3191C88.7347 47.0137 90.0411 43.9743 92.2105 41.5452C96.48 45.317 100.625 49.1579 103.432 53.9805C105.131 56.9021 109.48 54.6732 109.026 51.9364C108.149 46.6837 107.85 41.3951 107.613 36.0994C115.664 37.0757 121.885 43.0711 121.885 50.3191C121.883 58.2444 114.448 64.6943 105.309 64.6943Z" fill="#918F8C"/>
</svg>
