<svg width="129" height="72" viewBox="0 0 129 72" fill="none" xmlns="http://www.w3.org/2000/svg">
<path fill-rule="evenodd" clip-rule="evenodd" d="M64.1626 19.2604C54.0152 16.8823 42.016 17.0247 32.6074 17.9392C40.7925 32.2873 58.0961 30.1161 64.1626 19.2604ZM102.589 60.6785L106.851 56.313L106.906 62.304C105.311 62.1093 103.847 61.5362 102.589 60.6785ZM109.77 62.2461L109.715 56.2969L113.952 60.4791C112.742 61.3702 111.32 61.9804 109.77 62.2461ZM116.007 58.4594L111.728 54.2357L117.884 54.1788C117.607 55.7631 116.954 57.2251 116.007 58.4594ZM117.982 51.2868L111.701 51.3449L116.252 46.6835C117.181 48.0157 117.789 49.5812 117.982 51.2868ZM114.274 44.5859L109.651 49.3213L109.588 42.5447C111.341 42.8009 112.941 43.5193 114.274 44.5859ZM106.713 42.5294L106.776 49.3374L101.961 44.5845C103.305 43.5141 104.934 42.7868 106.713 42.5294ZM99.9908 46.6977L104.764 51.4091L98.2432 51.4694C98.4144 49.6976 99.0347 48.0683 99.9908 46.6977ZM98.3949 54.3486L104.79 54.2894L100.456 58.7289C99.4448 57.4918 98.7226 55.9901 98.3949 54.3486ZM13.2926 61.7034L17.7402 57.1477L17.7961 63.1911C16.149 63.0597 14.6128 62.5292 13.2926 61.7034ZM20.6693 62.976L20.615 57.1106L24.652 61.0956C23.4936 61.9967 22.1455 62.6586 20.6693 62.976ZM26.6328 59.0033L23.4368 55.8485L28.003 56.2252C27.6894 57.2337 27.2188 58.1703 26.6328 59.0033ZM26.6251 48.0362L26.8521 47.8037L26.9367 47.9391L26.6251 48.0362ZM24.9569 45.632L20.9221 49.7649C20.8066 49.6717 20.6808 49.5786 20.5446 49.4961L20.4888 43.4631C22.169 43.7932 23.6969 44.5543 24.9569 45.632ZM17.6121 43.3012L17.6638 48.8838C17.3205 48.9393 16.9881 49.0367 16.6664 49.1758L12.6504 45.2116C14.0575 44.1616 15.7595 43.4754 17.6121 43.3012ZM10.6066 47.2417L14.5911 51.1747C14.4275 51.5114 14.3058 51.8687 14.2468 52.2464L8.66373 52.298C8.83378 50.411 9.53651 48.6761 10.6066 47.2417ZM8.80494 55.1773L14.7526 55.1222C14.869 55.3202 14.9957 55.4971 15.143 55.6633L11.0875 59.8174C9.96099 58.529 9.15463 56.9443 8.80494 55.1773ZM85.0174 10.2164C83.8131 10.6674 83.2514 11.8772 83.9525 13.3477C84.8979 15.3187 85.9285 15.2463 87.8183 15.7107L89.019 16.0033C90.554 16.4081 91.7935 16.3862 92.6553 16.0849L93.7407 16.3053L94.8033 18.558C90.5423 19.6449 86.6 18.0159 82.899 14.3211C77.6311 13.5423 72.5527 14.0921 67.7198 16.4203C67.3239 20.9176 66.0015 24.3551 63.9315 26.9301C57.4946 34.9086 45.312 34.3719 37.1818 29.3458C33.3577 26.9825 30.1907 23.576 27.6398 19.2107C22.0773 19.2412 16.5804 19.6063 11.1928 20.5151L9.62269 24.2062C29.6348 24.2935 41.629 38.2606 46.54 60.1494L81.851 59.8228C84.0878 45.9963 90.6603 36.9063 100.042 30.8803L97.4871 32.7894L99.2854 36.8789C93.8869 39.9979 90.2744 45.8658 90.3364 52.5691C90.4278 62.446 98.4703 70.3848 108.293 70.2939C118.115 70.2031 126.01 62.1273 125.918 52.24C125.837 43.4943 119.52 36.2623 111.256 34.7884C115.979 35.258 121.391 36.9049 127.374 39.5206L128.601 37.1C123.244 32.3102 115.061 29.4216 103.088 29.0819C107.079 26.9186 111.501 25.2227 116.249 23.8799C110.406 12.6945 103.007 4.54022 93.5209 0.427575L92.1672 2.73407C95.3673 6.32875 97.9705 10.725 99.9464 15.986C99.1186 16.5908 98.3004 17.1011 97.502 17.5066L96.0253 14.3987C95.8023 13.9399 95.3724 13.6401 94.9031 13.5816L93.9012 13.3814C93.8585 13.277 93.795 13.1624 93.7314 13.0477C92.7256 11.2973 90.6904 10.8762 88.7388 10.4857C87.5389 10.2768 86.1904 9.77604 85.0174 10.2164ZM13.3998 25.9939L9.6973 25.5149L0.971396 34.9182L3.31218 35.7135L13.3998 25.9939ZM18.3719 35.3438C8.54941 35.4346 0.655121 43.5209 0.746478 53.3978C0.837835 63.2746 8.88035 71.2135 18.7028 71.1226C27.2233 71.0438 34.2922 64.9449 35.9573 56.8849L42.2958 57.4129C41.4511 52.8118 39.8907 48.542 37.7807 44.5392L34.6023 45.5323C31.7126 39.4522 25.5174 35.2777 18.3719 35.3438Z" fill="#939392"/>
</svg>
