<svg width="39" height="39" viewBox="0 0 39 39" fill="none" xmlns="http://www.w3.org/2000/svg">
<path fill-rule="evenodd" clip-rule="evenodd" d="M24.18 8.57996H14.82C11.3737 8.57996 8.57996 11.3737 8.57996 14.82V24.18C8.57996 27.6262 11.3737 30.42 14.82 30.42H24.18C27.6262 30.42 30.42 27.6262 30.42 24.18V14.82C30.42 11.3737 27.6262 8.57996 24.18 8.57996Z" stroke="#939392" stroke-width="3.6" stroke-linecap="round" stroke-linejoin="round"/>
<path fill-rule="evenodd" clip-rule="evenodd" d="M19.4999 24.1799C16.9152 24.1799 14.8199 22.0847 14.8199 19.4999C14.8199 16.9152 16.9152 14.8199 19.4999 14.8199C22.0847 14.8199 24.1799 16.9152 24.1799 19.4999C24.1799 20.7411 23.6868 21.9315 22.8092 22.8092C21.9315 23.6868 20.7411 24.1799 19.4999 24.1799Z" stroke="#939392" stroke-width="3.6" stroke-linecap="round" stroke-linejoin="round"/>
<path d="M25.7401 11.6999C24.8785 11.6999 24.1801 12.3984 24.1801 13.2599C24.1801 14.1215 24.8785 14.8199 25.7401 14.8199C26.6016 14.8199 27.3001 14.1215 27.3001 13.2599C27.3001 12.3984 26.6016 11.6999 25.7401 11.6999Z" fill="#939392"/>
<path d="M25.74 12.48C25.3092 12.48 24.96 12.8293 24.96 13.26C24.96 13.6908 25.3092 14.04 25.74 14.04C26.1707 14.04 26.52 13.6908 26.52 13.26C26.52 12.8293 26.1707 12.48 25.74 12.48Z" stroke="#939392" stroke-width="2.4" stroke-linecap="round"/>
</svg>
