<svg width="39" height="39" viewBox="0 0 39 39" fill="none" xmlns="http://www.w3.org/2000/svg">
<g clip-path="url(#clip0_1027_39)">
<path d="M31.2 7.15004L4.71255 17.3875C2.92505 18.0375 2.92505 19.175 4.38755 19.5L11.05 21.6125L13.65 29.4125C13.975 30.225 13.8125 30.55 14.625 30.55C15.275 30.55 15.6 30.225 15.925 29.9C16.0875 29.7375 17.55 28.275 19.175 26.65L26 31.6875C27.3 32.3375 28.1125 32.0125 28.4375 30.55L32.9875 9.26254C33.475 7.47504 32.3375 6.50004 31.2 7.15004ZM27.7875 12.025L15.1125 23.5625L14.625 28.925L12.025 21.125L26.975 11.7C27.625 11.2125 28.275 11.5375 27.7875 12.025Z" fill="#939392"/>
</g>
<defs>
<clipPath id="clip0_1027_39">
<rect width="39" height="39" fill="white"/>
</clipPath>
</defs>
</svg>
