<svg width="40" height="39" viewBox="0 0 40 39" fill="none" xmlns="http://www.w3.org/2000/svg">
<path d="M20.7996 1.2541C22.7946 1.22363 24.7751 1.23948 26.7544 1.22363C26.8202 3.69891 27.8244 5.92679 29.4222 7.57698L29.4198 7.57454C31.1394 9.12357 33.3771 10.1278 35.8438 10.2984L35.8779 10.3009V16.4385C33.5477 16.38 31.3564 15.8425 29.3808 14.9187L29.4807 14.9602C28.5252 14.5007 27.7172 14.029 26.9494 13.5025L27.0127 13.544C26.9981 17.9912 27.0274 22.4384 26.9823 26.8698C26.8567 29.1281 26.106 31.1878 24.9019 32.9075L24.9262 32.8697C22.9129 35.7533 19.6515 37.646 15.9428 37.7581H15.9258C15.7759 37.7654 15.5991 37.7691 15.4212 37.7691C13.3128 37.7691 11.3421 37.1816 9.66262 36.1615L9.71137 36.1896C6.65474 34.3505 4.5463 31.2037 4.1563 27.5438L4.15143 27.4938C4.12096 26.7321 4.10634 25.9704 4.1368 25.2245C4.73399 19.4001 9.61387 14.8944 15.5455 14.8944C16.2122 14.8944 16.8654 14.9516 17.5004 15.0601L17.4321 15.0504C17.4626 17.3038 17.3712 19.5585 17.3712 21.812C16.8557 21.6255 16.2609 21.517 15.6406 21.517C13.364 21.517 11.4274 22.9722 10.7107 25.0039L10.6998 25.0404C10.5377 25.5609 10.4438 26.1593 10.4438 26.7784C10.4438 27.0294 10.4597 27.2781 10.4889 27.5218L10.4865 27.4926C10.8911 29.9861 13.0288 31.8679 15.6065 31.8679C15.6808 31.8679 15.7539 31.8667 15.8271 31.863H15.8161C17.5991 31.8094 19.1469 30.8502 20.022 29.4328L20.0342 29.4109C20.3596 28.9575 20.5826 28.4091 20.657 27.8131L20.6582 27.796C20.8105 25.0697 20.7496 22.3592 20.7642 19.6329C20.7788 13.4952 20.7496 7.37223 20.7947 1.25045L20.7996 1.2541Z" fill="#939392"/>
</svg>
