<svg width="128" height="70" viewBox="0 0 128 70" fill="none" xmlns="http://www.w3.org/2000/svg">
<path d="M102.565 23.333C99.5852 23.3147 96.7458 23.7522 94.0863 24.5907L87.5077 14.5831H103.984C106.644 14.5831 108.783 12.6326 108.783 10.2082V4.37493C108.783 1.95049 106.644 0 103.984 0H94.9262C93.5665 0 92.2667 0.528637 91.3669 1.44008L83.8685 9.04152L79.3095 2.11455C78.4297 0.80207 76.87 0 75.1904 0H59.1938C57.4342 0 55.9945 1.31248 55.9945 2.91662V5.83324C55.9945 7.43738 57.4342 8.74986 59.1938 8.74986H72.471L76.3101 14.5831H45.5767C42.0375 10.3722 36.5986 7.29155 25.601 7.29155H14.5034C11.8039 7.29155 9.54443 9.29672 9.60442 11.7576C9.64441 14.1274 11.784 16.0414 14.4034 16.0414H25.601C30.4999 16.0414 33.3393 18.0284 35.159 20.5622L32.8994 24.2991C30.3 23.5882 27.5206 23.26 24.6412 23.3512C11.1841 23.7887 0.326406 33.8328 0.00647479 46.119C-0.313457 59.2621 11.2641 69.9989 25.601 69.9989C37.5184 69.9989 47.5363 62.5615 50.3957 52.4991H67.2321C69.9715 52.4991 72.151 50.4211 72.0311 47.9237C71.6112 39.3379 75.5303 30.8432 83.2687 25.1376L85.7681 28.9292C80.2493 33.2495 76.7501 39.666 76.81 46.83C76.91 59.5173 88.2476 69.8895 102.165 69.9989C116.482 70.1265 128.119 59.5173 127.999 46.4654C127.859 33.7781 116.482 23.4241 102.565 23.333ZM25.601 61.249C16.7829 61.249 9.60442 54.7048 9.60442 46.6659C9.60442 38.627 16.7829 32.0828 25.601 32.0828C26.4408 32.0828 27.2806 32.1375 28.1005 32.2651L19.8022 46.0097C18.0426 48.9263 20.3621 52.4991 24.0013 52.4991H40.2579C37.7784 57.6397 32.1396 61.249 25.601 61.249ZM118.361 47.468C117.921 54.8689 111.363 60.848 103.264 61.2308C94.0464 61.6865 86.388 54.9783 86.388 46.6659C86.388 42.7649 88.0676 39.2285 90.807 36.6218L100.685 51.6424C101.585 53.0278 103.564 53.4653 105.084 52.645L107.823 51.1502C109.343 50.3299 109.823 48.5253 108.923 47.1399L99.2052 32.3927C100.245 32.1922 101.305 32.101 102.385 32.101C111.503 32.0828 118.841 39.0645 118.361 47.468Z" fill="#939392"/>
</svg>
