<svg width="128" height="70" viewBox="0 0 128 70" fill="none" xmlns="http://www.w3.org/2000/svg">
<path d="M79.4009 0.000570576C79.4009 0.000570576 70.7982 -0.161782 64.7732 4.99076C63.7541 5.86234 63.7541 7.2637 64.7732 8.13527C65.7924 9.00685 67.431 9.00685 68.4501 8.13527C71.8073 5.2642 75.9139 4.73442 77.8023 4.58061C78.3218 5.52055 78.9013 6.56302 79.1611 7.65676C79.1911 7.81911 79.251 7.98146 79.321 8.13527C79.1311 9.13502 78.5416 10.6133 77.3227 11.8266C76.3035 12.6982 75.3044 13.1255 74.2852 13.1255C58.6784 13.1255 55.601 19.4828 54.0622 22.7641C53.8025 23.1998 53.5827 23.6271 53.5827 24.0629C45.3995 24.0629 39.2547 22.0976 38.2356 20.7817C34.6586 15.5351 31.821 15.3129 20.5705 15.3129C2.92531 15.3129 0.367462 22.7812 0.107679 23.6527C-0.152103 24.3107 0.0777044 24.9088 0.587275 25.5668C0.847058 25.7889 3.96443 28.4378 10.0993 28.4378H11.3782C14.9552 27.1219 18.7919 26.2504 22.8885 26.2504C38.4954 26.2504 51.0248 36.9656 51.0248 50.3127C51.0248 52.0644 50.7351 53.8246 50.2255 55.5763C54.8316 56.67 59.9973 56.8751 62.2953 56.8751H62.7749C67.381 56.8751 74.0254 55.7985 76.8431 53.3888C78.122 52.2951 78.3618 51.2013 78.3618 50.1076C76.1337 36.94 83.8372 30.9671 87.3942 28.9164C88.4133 30.9073 89.4525 32.9068 90.5915 34.8636C85.276 38.367 81.9588 44.0151 81.9588 50.1076C81.9588 61.045 92.1901 69.7949 104.979 69.7949C117.769 69.7949 128 61.045 128 50.1076C128 39.1702 117.769 30.6253 104.979 30.6253C101.402 30.6253 98.0552 31.2918 94.9878 32.6077C96.5265 35.231 98.315 37.8543 100.103 40.2639C101.642 39.8281 103.191 39.3753 104.979 39.3753C112.143 39.3753 117.769 44.186 117.769 50.3127C117.769 56.4393 112.143 61.2501 104.979 61.2501C97.8154 61.2501 92.1901 56.4393 92.1901 50.3127C92.1901 47.2536 93.4891 44.6218 95.7871 42.6565C94.0286 40.2896 92.2701 37.7176 90.7514 34.9319C92.0103 34.0774 93.4891 33.2486 94.9878 32.6077C92.6897 28.6686 90.3717 24.5243 88.833 20.3715C88.7431 20.175 88.6531 19.987 88.5132 19.8246C86.455 14.0569 84.4667 6.93045 84.2768 6.76809C84.2468 6.64847 84.1669 6.53738 84.1169 6.4263C83.3976 3.75176 81.639 1.16267 81.639 1.16267C81.1994 0.453447 80.3401 0.00911488 79.4009 0.000570576ZM95.7871 42.6565C98.8545 47.0314 102.452 50.945 105.779 54.004C106.288 54.4398 107.028 54.6876 107.537 54.6876C108.047 54.6876 108.786 54.4398 109.296 54.004C110.315 53.1325 110.315 51.8678 109.296 50.9963C106.228 48.1508 102.931 44.4167 99.8637 40.2639C98.325 40.9219 97.066 41.5627 95.7871 42.6565ZM96.2667 8.7505C94.2184 8.7505 92.2201 8.9983 90.4316 9.43409C91.9703 14.2448 93.9487 20.5339 95.2276 23.3793C95.2276 23.6015 95.5473 23.8407 95.5473 24.0629H96.2667C99.5939 24.0629 101.682 23.3793 103.221 22.2855C105.009 20.756 104.979 18.5685 104.979 16.8168V15.9965C104.979 14.2448 105.009 12.0574 103.221 10.5278C101.682 9.43409 99.5939 8.7505 96.2667 8.7505ZM23.1283 30.6253C10.3391 30.6253 0.107679 39.3753 0.107679 50.3127C0.107679 61.2501 10.3391 70 23.1283 70C34.8984 70 44.6302 62.3438 45.9091 52.5001H35.6777C34.3988 57.5331 29.2631 61.2501 23.1283 61.2501C15.9643 61.2501 10.3391 56.4393 10.3391 50.3127C10.3391 44.186 15.9643 39.3753 23.1283 39.3753C29.2631 39.3753 34.3988 43.0923 35.6777 48.1252H45.9091C44.6302 38.2815 34.8984 30.6253 23.1283 30.6253ZM35.6777 48.1252H30.4022C29.383 45.5361 26.5754 43.7502 23.1283 43.7502C18.782 43.7502 15.4548 46.5957 15.4548 50.3127C15.4548 54.0297 18.782 56.8751 23.1283 56.8751C26.5754 56.8751 29.383 55.0892 30.4022 52.5001H35.6777C35.9375 51.8422 35.9175 50.9706 35.9175 50.3127C35.9175 49.6547 35.9375 48.7831 35.6777 48.1252Z" fill="#939392"/>
</svg>
